<svg width="17" height="18" viewBox="0 0 17 18" fill="none" xmlns="http://www.w3.org/2000/svg">
<path d="M15.0194 7.84826H13.6029C13.7061 8.24969 13.7692 8.66833 13.7692 9.10417C13.7692 11.8741 11.5212 14.1221 8.75127 14.1221C5.98138 14.1221 3.73335 11.8741 3.73335 9.10417C3.73335 8.66833 3.79643 8.24969 3.89966 7.84826H2.48317V14.7472C2.48317 15.0913 2.76418 15.3723 3.10826 15.3723H14.3943C14.7384 15.3723 15.0194 15.0913 15.0194 14.7472V7.84826ZM15.0194 3.46117C15.0194 3.11708 14.7384 2.83608 14.3943 2.83608H12.5133C12.1692 2.83608 11.8882 3.11708 11.8882 3.46117V5.34217C11.8882 5.68626 12.1692 5.96726 12.5133 5.96726H14.3943C14.7384 5.96726 15.0194 5.68626 15.0194 5.34217V3.46117ZM8.75127 5.96726C7.01937 5.96726 5.61435 7.37228 5.61435 9.10417C5.61435 10.8361 7.01937 12.2411 8.75127 12.2411C10.4832 12.2411 11.8882 10.8361 11.8882 9.10417C11.8882 7.37228 10.4832 5.96726 8.75127 5.96726ZM15.0194 17.2533H2.48317C1.44518 17.2533 0.602173 16.4103 0.602173 15.3723V2.83608C0.602173 1.79809 1.44518 0.955078 2.48317 0.955078H15.0251C16.0631 0.955078 16.9061 1.79809 16.9061 2.83608V15.378C16.9004 16.4103 16.0631 17.2533 15.0194 17.2533Z" fill="#040615"/>
</svg>
