<svg width="17" height="17" viewBox="0 0 17 17" fill="none" xmlns="http://www.w3.org/2000/svg">
<path d="M4.61136 2.58982C4.61136 3.67943 3.73394 4.56831 2.65007 4.56831C1.5662 4.56831 0.688782 3.68516 0.688782 2.58982C0.688782 1.50022 1.5662 0.611328 2.65007 0.611328C3.73394 0.611328 4.61136 1.50022 4.61136 2.58982ZM4.32462 5.9676H1.00993V16.6801H4.32462V5.9676ZM9.62354 5.9676H6.44648V16.6801H9.62354V11.0601C9.62354 9.55182 10.3174 8.6572 11.6422 8.6572C12.8637 8.6572 13.4486 9.51741 13.4486 11.0601V16.6801H16.7461V9.89591C16.7461 7.02853 15.1232 5.64071 12.8465 5.64071C10.5755 5.64071 9.61781 7.41276 9.61781 7.41276V5.9676H9.62354Z" fill="#040615"/>
</svg>
