<svg width="19" height="16" viewBox="0 0 19 16" fill="none" xmlns="http://www.w3.org/2000/svg">
<path d="M18.4303 2.09273C17.7593 2.39094 17.0425 2.59165 16.2855 2.67767C17.0539 2.21316 17.6504 1.48484 17.9256 0.613159C17.203 1.04327 16.4059 1.35294 15.5572 1.51925C14.8747 0.796672 13.9056 0.337891 12.8332 0.337891C10.4246 0.337891 8.65252 2.58592 9.19732 4.91996C6.09481 4.76513 3.34213 3.27982 1.50127 1.02033C0.526357 2.69488 0.996608 4.89129 2.65395 6.00384C2.04033 5.98663 1.46686 5.81459 0.962199 5.53932C0.922056 7.27122 2.16076 8.88842 3.95574 9.24397C3.42815 9.38734 2.85467 9.42175 2.26973 9.30706C2.74571 10.7924 4.12205 11.8705 5.75646 11.8992C4.18514 13.1264 2.21238 13.6769 0.228149 13.4476C1.87976 14.5085 3.84105 15.1221 5.95144 15.1221C12.879 15.1221 16.7959 9.26691 16.5608 4.01961C17.3005 3.49774 17.9314 2.84398 18.4303 2.09273Z" fill="#040615"/>
</svg>
